<mxfile host="app.diagrams.net" modified="2023-12-09T15:00:00.102Z" agent="Mozilla/5.0 (X11; Ubuntu; Linux x86_64; rv:109.0) Gecko/20100101 Firefox/119.0" etag="mmJ4ShoP2IfGK_I-bcD9" version="22.1.7" type="github">
  <diagram id="C5RBs43oDa-KdzZeNtuy" name="Page-1">
    <mxGraphModel dx="2191" dy="795" grid="1" gridSize="10" guides="1" tooltips="1" connect="1" arrows="1" fold="1" page="1" pageScale="1" pageWidth="827" pageHeight="1169" math="0" shadow="0">
      <root>
        <mxCell id="WIyWlLk6GJQsqaUBKTNV-0" />
        <mxCell id="WIyWlLk6GJQsqaUBKTNV-1" parent="WIyWlLk6GJQsqaUBKTNV-0" />
        <mxCell id="A8sizdN1FHd-sE4lPlB5-17" style="edgeStyle=orthogonalEdgeStyle;rounded=0;orthogonalLoop=1;jettySize=auto;html=1;exitX=1;exitY=0.25;exitDx=0;exitDy=0;entryX=0;entryY=0.25;entryDx=0;entryDy=0;strokeWidth=4;" edge="1" parent="WIyWlLk6GJQsqaUBKTNV-1" source="WIyWlLk6GJQsqaUBKTNV-3" target="A8sizdN1FHd-sE4lPlB5-16">
          <mxGeometry relative="1" as="geometry" />
        </mxCell>
        <mxCell id="A8sizdN1FHd-sE4lPlB5-18" style="edgeStyle=orthogonalEdgeStyle;rounded=0;orthogonalLoop=1;jettySize=auto;html=1;exitX=1;exitY=0.75;exitDx=0;exitDy=0;entryX=0;entryY=0.75;entryDx=0;entryDy=0;strokeWidth=4;" edge="1" parent="WIyWlLk6GJQsqaUBKTNV-1" source="WIyWlLk6GJQsqaUBKTNV-3" target="A8sizdN1FHd-sE4lPlB5-16">
          <mxGeometry relative="1" as="geometry" />
        </mxCell>
        <mxCell id="WIyWlLk6GJQsqaUBKTNV-3" value="Text Annotation" style="rounded=1;whiteSpace=wrap;html=1;fontSize=16;glass=0;strokeWidth=4;shadow=0;fillColor=#dae8fc;strokeColor=#000000;fontStyle=1" parent="WIyWlLk6GJQsqaUBKTNV-1" vertex="1">
          <mxGeometry x="340" y="120" width="160" height="100" as="geometry" />
        </mxCell>
        <mxCell id="A8sizdN1FHd-sE4lPlB5-9" style="edgeStyle=orthogonalEdgeStyle;rounded=0;orthogonalLoop=1;jettySize=auto;html=1;entryX=0.006;entryY=0.357;entryDx=0;entryDy=0;entryPerimeter=0;strokeWidth=4;" edge="1" parent="WIyWlLk6GJQsqaUBKTNV-1" source="A8sizdN1FHd-sE4lPlB5-0" target="WIyWlLk6GJQsqaUBKTNV-3">
          <mxGeometry relative="1" as="geometry">
            <mxPoint x="330" y="150" as="targetPoint" />
          </mxGeometry>
        </mxCell>
        <mxCell id="A8sizdN1FHd-sE4lPlB5-0" value="&lt;div style=&quot;font-size: 16px;&quot;&gt;Certificates&lt;/div&gt;&lt;div style=&quot;font-size: 16px;&quot;&gt;and Declarations&lt;br style=&quot;font-size: 16px;&quot;&gt;&lt;/div&gt;" style="shape=cylinder3;whiteSpace=wrap;html=1;boundedLbl=1;backgroundOutline=1;size=15;fontSize=16;fontStyle=1;strokeWidth=4;" vertex="1" parent="WIyWlLk6GJQsqaUBKTNV-1">
          <mxGeometry x="170" y="30" width="100" height="120" as="geometry" />
        </mxCell>
        <mxCell id="A8sizdN1FHd-sE4lPlB5-2" value="Syllabi" style="shape=cylinder3;whiteSpace=wrap;html=1;boundedLbl=1;backgroundOutline=1;size=15;fontSize=16;fontStyle=1;strokeWidth=4;" vertex="1" parent="WIyWlLk6GJQsqaUBKTNV-1">
          <mxGeometry x="170" y="190" width="100" height="120" as="geometry" />
        </mxCell>
        <mxCell id="A8sizdN1FHd-sE4lPlB5-138" style="edgeStyle=orthogonalEdgeStyle;rounded=0;orthogonalLoop=1;jettySize=auto;html=1;exitX=0.75;exitY=1;exitDx=0;exitDy=0;strokeWidth=4;" edge="1" parent="WIyWlLk6GJQsqaUBKTNV-1" source="A8sizdN1FHd-sE4lPlB5-6">
          <mxGeometry relative="1" as="geometry">
            <mxPoint x="940" y="420" as="targetPoint" />
          </mxGeometry>
        </mxCell>
        <mxCell id="A8sizdN1FHd-sE4lPlB5-139" style="edgeStyle=orthogonalEdgeStyle;rounded=0;orthogonalLoop=1;jettySize=auto;html=1;exitX=0.25;exitY=1;exitDx=0;exitDy=0;strokeWidth=4;" edge="1" parent="WIyWlLk6GJQsqaUBKTNV-1" source="A8sizdN1FHd-sE4lPlB5-6">
          <mxGeometry relative="1" as="geometry">
            <mxPoint x="860" y="280" as="targetPoint" />
          </mxGeometry>
        </mxCell>
        <mxCell id="A8sizdN1FHd-sE4lPlB5-6" value="&lt;div&gt;Document Embedding&lt;/div&gt;&lt;div&gt;Generation&lt;br&gt;&lt;/div&gt;" style="rounded=1;whiteSpace=wrap;html=1;fontSize=16;glass=0;strokeWidth=4;shadow=0;fillColor=#dae8fc;strokeColor=#000000;fontStyle=1" vertex="1" parent="WIyWlLk6GJQsqaUBKTNV-1">
          <mxGeometry x="820" y="120" width="160" height="100" as="geometry" />
        </mxCell>
        <mxCell id="A8sizdN1FHd-sE4lPlB5-10" style="edgeStyle=orthogonalEdgeStyle;rounded=0;orthogonalLoop=1;jettySize=auto;html=1;entryX=-0.012;entryY=0.696;entryDx=0;entryDy=0;entryPerimeter=0;strokeWidth=4;" edge="1" parent="WIyWlLk6GJQsqaUBKTNV-1" source="A8sizdN1FHd-sE4lPlB5-2" target="WIyWlLk6GJQsqaUBKTNV-3">
          <mxGeometry relative="1" as="geometry" />
        </mxCell>
        <mxCell id="A8sizdN1FHd-sE4lPlB5-20" style="edgeStyle=orthogonalEdgeStyle;rounded=0;orthogonalLoop=1;jettySize=auto;html=1;exitX=1;exitY=0.25;exitDx=0;exitDy=0;entryX=0;entryY=0.25;entryDx=0;entryDy=0;strokeWidth=4;" edge="1" parent="WIyWlLk6GJQsqaUBKTNV-1" source="A8sizdN1FHd-sE4lPlB5-16" target="A8sizdN1FHd-sE4lPlB5-6">
          <mxGeometry relative="1" as="geometry" />
        </mxCell>
        <mxCell id="A8sizdN1FHd-sE4lPlB5-21" style="edgeStyle=orthogonalEdgeStyle;rounded=0;orthogonalLoop=1;jettySize=auto;html=1;exitX=1;exitY=0.75;exitDx=0;exitDy=0;entryX=0;entryY=0.75;entryDx=0;entryDy=0;strokeWidth=4;" edge="1" parent="WIyWlLk6GJQsqaUBKTNV-1" source="A8sizdN1FHd-sE4lPlB5-16" target="A8sizdN1FHd-sE4lPlB5-6">
          <mxGeometry relative="1" as="geometry" />
        </mxCell>
        <mxCell id="A8sizdN1FHd-sE4lPlB5-16" value="Text Preprocessing" style="rounded=1;whiteSpace=wrap;html=1;fontSize=16;glass=0;strokeWidth=4;shadow=0;fillColor=#dae8fc;strokeColor=#000000;fontStyle=1" vertex="1" parent="WIyWlLk6GJQsqaUBKTNV-1">
          <mxGeometry x="580" y="120" width="160" height="100" as="geometry" />
        </mxCell>
        <mxCell id="A8sizdN1FHd-sE4lPlB5-22" value="" style="rounded=0;whiteSpace=wrap;html=1;strokeWidth=3;" vertex="1" parent="WIyWlLk6GJQsqaUBKTNV-1">
          <mxGeometry x="838" y="431" width="20" height="20" as="geometry" />
        </mxCell>
        <mxCell id="A8sizdN1FHd-sE4lPlB5-47" value="" style="rounded=0;whiteSpace=wrap;html=1;strokeWidth=3;" vertex="1" parent="WIyWlLk6GJQsqaUBKTNV-1">
          <mxGeometry x="858" y="431" width="20" height="20" as="geometry" />
        </mxCell>
        <mxCell id="A8sizdN1FHd-sE4lPlB5-48" value="" style="rounded=0;whiteSpace=wrap;html=1;strokeWidth=3;" vertex="1" parent="WIyWlLk6GJQsqaUBKTNV-1">
          <mxGeometry x="878" y="431" width="20" height="20" as="geometry" />
        </mxCell>
        <mxCell id="A8sizdN1FHd-sE4lPlB5-50" value="" style="rounded=0;whiteSpace=wrap;html=1;strokeWidth=3;" vertex="1" parent="WIyWlLk6GJQsqaUBKTNV-1">
          <mxGeometry x="898" y="431" width="20" height="20" as="geometry" />
        </mxCell>
        <mxCell id="A8sizdN1FHd-sE4lPlB5-51" value="" style="rounded=0;whiteSpace=wrap;html=1;strokeWidth=3;" vertex="1" parent="WIyWlLk6GJQsqaUBKTNV-1">
          <mxGeometry x="918" y="431" width="20" height="20" as="geometry" />
        </mxCell>
        <mxCell id="A8sizdN1FHd-sE4lPlB5-135" style="edgeStyle=orthogonalEdgeStyle;rounded=0;orthogonalLoop=1;jettySize=auto;html=1;entryX=1;entryY=0.5;entryDx=0;entryDy=0;strokeWidth=4;" edge="1" parent="WIyWlLk6GJQsqaUBKTNV-1" source="A8sizdN1FHd-sE4lPlB5-83" target="A8sizdN1FHd-sE4lPlB5-129">
          <mxGeometry relative="1" as="geometry">
            <mxPoint x="760" y="451" as="targetPoint" />
          </mxGeometry>
        </mxCell>
        <mxCell id="A8sizdN1FHd-sE4lPlB5-83" value="" style="rounded=0;whiteSpace=wrap;html=1;strokeWidth=3;" vertex="1" parent="WIyWlLk6GJQsqaUBKTNV-1">
          <mxGeometry x="848" y="441" width="20" height="20" as="geometry" />
        </mxCell>
        <mxCell id="A8sizdN1FHd-sE4lPlB5-84" value="" style="rounded=0;whiteSpace=wrap;html=1;strokeWidth=3;" vertex="1" parent="WIyWlLk6GJQsqaUBKTNV-1">
          <mxGeometry x="868" y="441" width="20" height="20" as="geometry" />
        </mxCell>
        <mxCell id="A8sizdN1FHd-sE4lPlB5-85" value="" style="rounded=0;whiteSpace=wrap;html=1;strokeWidth=3;" vertex="1" parent="WIyWlLk6GJQsqaUBKTNV-1">
          <mxGeometry x="888" y="441" width="20" height="20" as="geometry" />
        </mxCell>
        <mxCell id="A8sizdN1FHd-sE4lPlB5-86" value="" style="rounded=0;whiteSpace=wrap;html=1;strokeWidth=3;" vertex="1" parent="WIyWlLk6GJQsqaUBKTNV-1">
          <mxGeometry x="908" y="441" width="20" height="20" as="geometry" />
        </mxCell>
        <mxCell id="A8sizdN1FHd-sE4lPlB5-87" value="" style="rounded=0;whiteSpace=wrap;html=1;strokeWidth=3;" vertex="1" parent="WIyWlLk6GJQsqaUBKTNV-1">
          <mxGeometry x="928" y="441" width="20" height="20" as="geometry" />
        </mxCell>
        <mxCell id="A8sizdN1FHd-sE4lPlB5-88" value="" style="rounded=0;whiteSpace=wrap;html=1;strokeWidth=3;" vertex="1" parent="WIyWlLk6GJQsqaUBKTNV-1">
          <mxGeometry x="858" y="451" width="20" height="20" as="geometry" />
        </mxCell>
        <mxCell id="A8sizdN1FHd-sE4lPlB5-89" value="" style="rounded=0;whiteSpace=wrap;html=1;strokeWidth=3;" vertex="1" parent="WIyWlLk6GJQsqaUBKTNV-1">
          <mxGeometry x="878" y="451" width="20" height="20" as="geometry" />
        </mxCell>
        <mxCell id="A8sizdN1FHd-sE4lPlB5-90" value="" style="rounded=0;whiteSpace=wrap;html=1;strokeWidth=3;" vertex="1" parent="WIyWlLk6GJQsqaUBKTNV-1">
          <mxGeometry x="898" y="451" width="20" height="20" as="geometry" />
        </mxCell>
        <mxCell id="A8sizdN1FHd-sE4lPlB5-91" value="" style="rounded=0;whiteSpace=wrap;html=1;strokeWidth=3;" vertex="1" parent="WIyWlLk6GJQsqaUBKTNV-1">
          <mxGeometry x="918" y="451" width="20" height="20" as="geometry" />
        </mxCell>
        <mxCell id="A8sizdN1FHd-sE4lPlB5-92" value="" style="rounded=0;whiteSpace=wrap;html=1;strokeWidth=3;" vertex="1" parent="WIyWlLk6GJQsqaUBKTNV-1">
          <mxGeometry x="938" y="451" width="20" height="20" as="geometry" />
        </mxCell>
        <mxCell id="A8sizdN1FHd-sE4lPlB5-93" value="" style="rounded=0;whiteSpace=wrap;html=1;strokeWidth=3;" vertex="1" parent="WIyWlLk6GJQsqaUBKTNV-1">
          <mxGeometry x="868" y="461" width="20" height="20" as="geometry" />
        </mxCell>
        <mxCell id="A8sizdN1FHd-sE4lPlB5-94" value="" style="rounded=0;whiteSpace=wrap;html=1;strokeWidth=3;" vertex="1" parent="WIyWlLk6GJQsqaUBKTNV-1">
          <mxGeometry x="888" y="461" width="20" height="20" as="geometry" />
        </mxCell>
        <mxCell id="A8sizdN1FHd-sE4lPlB5-95" value="" style="rounded=0;whiteSpace=wrap;html=1;strokeWidth=3;" vertex="1" parent="WIyWlLk6GJQsqaUBKTNV-1">
          <mxGeometry x="908" y="461" width="20" height="20" as="geometry" />
        </mxCell>
        <mxCell id="A8sizdN1FHd-sE4lPlB5-96" value="" style="rounded=0;whiteSpace=wrap;html=1;strokeWidth=3;" vertex="1" parent="WIyWlLk6GJQsqaUBKTNV-1">
          <mxGeometry x="928" y="461" width="20" height="20" as="geometry" />
        </mxCell>
        <mxCell id="A8sizdN1FHd-sE4lPlB5-97" value="" style="rounded=0;whiteSpace=wrap;html=1;strokeWidth=3;" vertex="1" parent="WIyWlLk6GJQsqaUBKTNV-1">
          <mxGeometry x="948" y="461" width="20" height="20" as="geometry" />
        </mxCell>
        <mxCell id="A8sizdN1FHd-sE4lPlB5-98" value="" style="rounded=0;whiteSpace=wrap;html=1;strokeWidth=3;" vertex="1" parent="WIyWlLk6GJQsqaUBKTNV-1">
          <mxGeometry x="878" y="471" width="20" height="20" as="geometry" />
        </mxCell>
        <mxCell id="A8sizdN1FHd-sE4lPlB5-99" value="" style="rounded=0;whiteSpace=wrap;html=1;strokeWidth=3;" vertex="1" parent="WIyWlLk6GJQsqaUBKTNV-1">
          <mxGeometry x="898" y="471" width="20" height="20" as="geometry" />
        </mxCell>
        <mxCell id="A8sizdN1FHd-sE4lPlB5-100" value="" style="rounded=0;whiteSpace=wrap;html=1;strokeWidth=3;" vertex="1" parent="WIyWlLk6GJQsqaUBKTNV-1">
          <mxGeometry x="918" y="471" width="20" height="20" as="geometry" />
        </mxCell>
        <mxCell id="A8sizdN1FHd-sE4lPlB5-101" value="" style="rounded=0;whiteSpace=wrap;html=1;strokeWidth=3;" vertex="1" parent="WIyWlLk6GJQsqaUBKTNV-1">
          <mxGeometry x="938" y="471" width="20" height="20" as="geometry" />
        </mxCell>
        <mxCell id="A8sizdN1FHd-sE4lPlB5-102" value="" style="rounded=0;whiteSpace=wrap;html=1;strokeWidth=3;" vertex="1" parent="WIyWlLk6GJQsqaUBKTNV-1">
          <mxGeometry x="958" y="471" width="20" height="20" as="geometry" />
        </mxCell>
        <mxCell id="A8sizdN1FHd-sE4lPlB5-103" value="" style="rounded=0;whiteSpace=wrap;html=1;strokeWidth=3;" vertex="1" parent="WIyWlLk6GJQsqaUBKTNV-1">
          <mxGeometry x="766" y="282" width="20" height="20" as="geometry" />
        </mxCell>
        <mxCell id="A8sizdN1FHd-sE4lPlB5-104" value="" style="rounded=0;whiteSpace=wrap;html=1;strokeWidth=3;" vertex="1" parent="WIyWlLk6GJQsqaUBKTNV-1">
          <mxGeometry x="786" y="282" width="20" height="20" as="geometry" />
        </mxCell>
        <mxCell id="A8sizdN1FHd-sE4lPlB5-105" value="" style="rounded=0;whiteSpace=wrap;html=1;strokeWidth=3;" vertex="1" parent="WIyWlLk6GJQsqaUBKTNV-1">
          <mxGeometry x="806" y="282" width="20" height="20" as="geometry" />
        </mxCell>
        <mxCell id="A8sizdN1FHd-sE4lPlB5-106" value="" style="rounded=0;whiteSpace=wrap;html=1;strokeWidth=3;" vertex="1" parent="WIyWlLk6GJQsqaUBKTNV-1">
          <mxGeometry x="826" y="282" width="20" height="20" as="geometry" />
        </mxCell>
        <mxCell id="A8sizdN1FHd-sE4lPlB5-107" value="" style="rounded=0;whiteSpace=wrap;html=1;strokeWidth=3;" vertex="1" parent="WIyWlLk6GJQsqaUBKTNV-1">
          <mxGeometry x="846" y="282" width="20" height="20" as="geometry" />
        </mxCell>
        <mxCell id="A8sizdN1FHd-sE4lPlB5-108" value="" style="rounded=0;whiteSpace=wrap;html=1;strokeWidth=3;" vertex="1" parent="WIyWlLk6GJQsqaUBKTNV-1">
          <mxGeometry x="776" y="292" width="20" height="20" as="geometry" />
        </mxCell>
        <mxCell id="A8sizdN1FHd-sE4lPlB5-109" value="" style="rounded=0;whiteSpace=wrap;html=1;strokeWidth=3;" vertex="1" parent="WIyWlLk6GJQsqaUBKTNV-1">
          <mxGeometry x="796" y="292" width="20" height="20" as="geometry" />
        </mxCell>
        <mxCell id="A8sizdN1FHd-sE4lPlB5-110" value="" style="rounded=0;whiteSpace=wrap;html=1;strokeWidth=3;" vertex="1" parent="WIyWlLk6GJQsqaUBKTNV-1">
          <mxGeometry x="816" y="292" width="20" height="20" as="geometry" />
        </mxCell>
        <mxCell id="A8sizdN1FHd-sE4lPlB5-111" value="" style="rounded=0;whiteSpace=wrap;html=1;strokeWidth=3;" vertex="1" parent="WIyWlLk6GJQsqaUBKTNV-1">
          <mxGeometry x="836" y="292" width="20" height="20" as="geometry" />
        </mxCell>
        <mxCell id="A8sizdN1FHd-sE4lPlB5-112" value="" style="rounded=0;whiteSpace=wrap;html=1;strokeWidth=3;" vertex="1" parent="WIyWlLk6GJQsqaUBKTNV-1">
          <mxGeometry x="856" y="292" width="20" height="20" as="geometry" />
        </mxCell>
        <mxCell id="A8sizdN1FHd-sE4lPlB5-137" style="edgeStyle=orthogonalEdgeStyle;rounded=0;orthogonalLoop=1;jettySize=auto;html=1;entryX=1;entryY=0.5;entryDx=0;entryDy=0;strokeWidth=4;" edge="1" parent="WIyWlLk6GJQsqaUBKTNV-1" source="A8sizdN1FHd-sE4lPlB5-113" target="A8sizdN1FHd-sE4lPlB5-128">
          <mxGeometry relative="1" as="geometry" />
        </mxCell>
        <mxCell id="A8sizdN1FHd-sE4lPlB5-113" value="" style="rounded=0;whiteSpace=wrap;html=1;strokeWidth=3;" vertex="1" parent="WIyWlLk6GJQsqaUBKTNV-1">
          <mxGeometry x="786" y="302" width="20" height="20" as="geometry" />
        </mxCell>
        <mxCell id="A8sizdN1FHd-sE4lPlB5-114" value="" style="rounded=0;whiteSpace=wrap;html=1;strokeWidth=3;" vertex="1" parent="WIyWlLk6GJQsqaUBKTNV-1">
          <mxGeometry x="806" y="302" width="20" height="20" as="geometry" />
        </mxCell>
        <mxCell id="A8sizdN1FHd-sE4lPlB5-115" value="" style="rounded=0;whiteSpace=wrap;html=1;strokeWidth=3;" vertex="1" parent="WIyWlLk6GJQsqaUBKTNV-1">
          <mxGeometry x="826" y="302" width="20" height="20" as="geometry" />
        </mxCell>
        <mxCell id="A8sizdN1FHd-sE4lPlB5-116" value="" style="rounded=0;whiteSpace=wrap;html=1;strokeWidth=3;" vertex="1" parent="WIyWlLk6GJQsqaUBKTNV-1">
          <mxGeometry x="846" y="302" width="20" height="20" as="geometry" />
        </mxCell>
        <mxCell id="A8sizdN1FHd-sE4lPlB5-117" value="" style="rounded=0;whiteSpace=wrap;html=1;strokeWidth=3;" vertex="1" parent="WIyWlLk6GJQsqaUBKTNV-1">
          <mxGeometry x="866" y="302" width="20" height="20" as="geometry" />
        </mxCell>
        <mxCell id="A8sizdN1FHd-sE4lPlB5-118" value="" style="rounded=0;whiteSpace=wrap;html=1;strokeWidth=3;" vertex="1" parent="WIyWlLk6GJQsqaUBKTNV-1">
          <mxGeometry x="796" y="312" width="20" height="20" as="geometry" />
        </mxCell>
        <mxCell id="A8sizdN1FHd-sE4lPlB5-119" value="" style="rounded=0;whiteSpace=wrap;html=1;strokeWidth=3;" vertex="1" parent="WIyWlLk6GJQsqaUBKTNV-1">
          <mxGeometry x="816" y="312" width="20" height="20" as="geometry" />
        </mxCell>
        <mxCell id="A8sizdN1FHd-sE4lPlB5-120" value="" style="rounded=0;whiteSpace=wrap;html=1;strokeWidth=3;" vertex="1" parent="WIyWlLk6GJQsqaUBKTNV-1">
          <mxGeometry x="836" y="312" width="20" height="20" as="geometry" />
        </mxCell>
        <mxCell id="A8sizdN1FHd-sE4lPlB5-121" value="" style="rounded=0;whiteSpace=wrap;html=1;strokeWidth=3;" vertex="1" parent="WIyWlLk6GJQsqaUBKTNV-1">
          <mxGeometry x="856" y="312" width="20" height="20" as="geometry" />
        </mxCell>
        <mxCell id="A8sizdN1FHd-sE4lPlB5-122" value="" style="rounded=0;whiteSpace=wrap;html=1;strokeWidth=3;" vertex="1" parent="WIyWlLk6GJQsqaUBKTNV-1">
          <mxGeometry x="876" y="312" width="20" height="20" as="geometry" />
        </mxCell>
        <mxCell id="A8sizdN1FHd-sE4lPlB5-123" value="" style="rounded=0;whiteSpace=wrap;html=1;strokeWidth=3;" vertex="1" parent="WIyWlLk6GJQsqaUBKTNV-1">
          <mxGeometry x="806" y="322" width="20" height="20" as="geometry" />
        </mxCell>
        <mxCell id="A8sizdN1FHd-sE4lPlB5-124" value="" style="rounded=0;whiteSpace=wrap;html=1;strokeWidth=3;" vertex="1" parent="WIyWlLk6GJQsqaUBKTNV-1">
          <mxGeometry x="826" y="322" width="20" height="20" as="geometry" />
        </mxCell>
        <mxCell id="A8sizdN1FHd-sE4lPlB5-125" value="" style="rounded=0;whiteSpace=wrap;html=1;strokeWidth=3;" vertex="1" parent="WIyWlLk6GJQsqaUBKTNV-1">
          <mxGeometry x="846" y="322" width="20" height="20" as="geometry" />
        </mxCell>
        <mxCell id="A8sizdN1FHd-sE4lPlB5-126" value="" style="rounded=0;whiteSpace=wrap;html=1;strokeWidth=3;" vertex="1" parent="WIyWlLk6GJQsqaUBKTNV-1">
          <mxGeometry x="866" y="322" width="20" height="20" as="geometry" />
        </mxCell>
        <mxCell id="A8sizdN1FHd-sE4lPlB5-127" value="" style="rounded=0;whiteSpace=wrap;html=1;strokeWidth=3;" vertex="1" parent="WIyWlLk6GJQsqaUBKTNV-1">
          <mxGeometry x="886" y="322" width="20" height="20" as="geometry" />
        </mxCell>
        <mxCell id="A8sizdN1FHd-sE4lPlB5-128" value="&lt;div&gt;Text Retrieval&lt;/div&gt;&lt;div&gt;Experiments&lt;br&gt;&lt;/div&gt;" style="rounded=1;whiteSpace=wrap;html=1;fontSize=16;glass=0;strokeWidth=4;shadow=0;fillColor=#dae8fc;strokeColor=#000000;fontStyle=1" vertex="1" parent="WIyWlLk6GJQsqaUBKTNV-1">
          <mxGeometry x="334" y="262" width="160" height="100" as="geometry" />
        </mxCell>
        <mxCell id="A8sizdN1FHd-sE4lPlB5-129" value="&lt;div&gt;Text Classification&lt;/div&gt;&lt;div&gt;Experiments&lt;br&gt;&lt;/div&gt;" style="rounded=1;whiteSpace=wrap;html=1;fontSize=16;glass=0;strokeWidth=4;shadow=0;fillColor=#dae8fc;strokeColor=#000000;fontStyle=1" vertex="1" parent="WIyWlLk6GJQsqaUBKTNV-1">
          <mxGeometry x="334" y="401" width="160" height="100" as="geometry" />
        </mxCell>
        <mxCell id="A8sizdN1FHd-sE4lPlB5-130" value="&lt;div style=&quot;font-size: 12px;&quot;&gt;&lt;font style=&quot;font-size: 12px;&quot;&gt;Embeddings of&lt;/font&gt;&lt;/div&gt;&lt;div style=&quot;font-size: 12px;&quot;&gt;&lt;font style=&quot;font-size: 12px;&quot;&gt;Certificates and Declarations&lt;font style=&quot;font-size: 12px;&quot;&gt;&lt;br&gt;&lt;/font&gt;&lt;/font&gt;&lt;/div&gt;" style="text;html=1;strokeColor=none;fillColor=none;align=center;verticalAlign=middle;whiteSpace=wrap;rounded=0;fontSize=16;fontStyle=1" vertex="1" parent="WIyWlLk6GJQsqaUBKTNV-1">
          <mxGeometry x="808" y="501" width="220" height="30" as="geometry" />
        </mxCell>
        <mxCell id="A8sizdN1FHd-sE4lPlB5-131" value="&lt;div&gt;&lt;font style=&quot;font-size: 12px;&quot;&gt;Syllabi&#39;s&lt;/font&gt;&lt;/div&gt;&lt;div&gt;&lt;font style=&quot;font-size: 12px;&quot;&gt;Embeddings&lt;/font&gt;&lt;/div&gt;&lt;div style=&quot;font-size: 12px;&quot;&gt;&lt;br&gt;&lt;/div&gt;" style="text;html=1;strokeColor=none;fillColor=none;align=center;verticalAlign=middle;whiteSpace=wrap;rounded=0;fontSize=16;fontStyle=1" vertex="1" parent="WIyWlLk6GJQsqaUBKTNV-1">
          <mxGeometry x="746" y="362" width="220" height="30" as="geometry" />
        </mxCell>
        <mxCell id="A8sizdN1FHd-sE4lPlB5-141" value="&lt;div style=&quot;font-size: 16px;&quot;&gt;Results Analysis&lt;/div&gt;&lt;div style=&quot;font-size: 16px;&quot;&gt;and Discussion&lt;br style=&quot;font-size: 16px;&quot;&gt;&lt;/div&gt;" style="ellipse;shape=cloud;whiteSpace=wrap;html=1;strokeWidth=4;fontSize=16;fontStyle=1" vertex="1" parent="WIyWlLk6GJQsqaUBKTNV-1">
          <mxGeometry x="-70" y="310" width="210" height="128" as="geometry" />
        </mxCell>
        <mxCell id="A8sizdN1FHd-sE4lPlB5-146" value="&lt;div&gt;Corpora&lt;/div&gt;&lt;div&gt;Construction&lt;br&gt;&lt;/div&gt;" style="rounded=1;whiteSpace=wrap;html=1;fontSize=16;glass=0;strokeWidth=4;shadow=0;fillColor=#dae8fc;strokeColor=#000000;fontStyle=1" vertex="1" parent="WIyWlLk6GJQsqaUBKTNV-1">
          <mxGeometry x="-70" y="120" width="160" height="100" as="geometry" />
        </mxCell>
        <mxCell id="A8sizdN1FHd-sE4lPlB5-147" style="edgeStyle=orthogonalEdgeStyle;rounded=0;orthogonalLoop=1;jettySize=auto;html=1;exitX=1;exitY=0.25;exitDx=0;exitDy=0;entryX=0;entryY=0.5;entryDx=0;entryDy=0;entryPerimeter=0;strokeWidth=4;" edge="1" parent="WIyWlLk6GJQsqaUBKTNV-1" source="A8sizdN1FHd-sE4lPlB5-146" target="A8sizdN1FHd-sE4lPlB5-0">
          <mxGeometry relative="1" as="geometry" />
        </mxCell>
        <mxCell id="A8sizdN1FHd-sE4lPlB5-148" style="edgeStyle=orthogonalEdgeStyle;rounded=0;orthogonalLoop=1;jettySize=auto;html=1;exitX=1;exitY=0.75;exitDx=0;exitDy=0;entryX=0;entryY=0.5;entryDx=0;entryDy=0;entryPerimeter=0;strokeWidth=4;" edge="1" parent="WIyWlLk6GJQsqaUBKTNV-1" source="A8sizdN1FHd-sE4lPlB5-146" target="A8sizdN1FHd-sE4lPlB5-2">
          <mxGeometry relative="1" as="geometry" />
        </mxCell>
      </root>
    </mxGraphModel>
  </diagram>
</mxfile>
